<?xml version="1.0" encoding="iso-8859-1"?>
<!-- Generator: Adobe Illustrator 19.0.0, SVG Export Plug-In . SVG Version: 6.00 Build 0)  -->
<svg version="1.1" id="Capa_1" xmlns="http://www.w3.org/2000/svg" xmlns:xlink="http://www.w3.org/1999/xlink" x="0px" y="0px"
	 viewBox="0 0 512 512" style="enable-background:new 0 0 512 512;" xml:space="preserve">
<g>
	<g>
		<path d="M441.217,235.868l-37.982-8.802l12.093-37.912l-0.879-0.293c-14.881-4.96-31.125-9.049-48.264-12.282
			c-6.656,54.889-53.528,97.558-110.184,97.558c-55.875,0-102.231-41.501-109.884-95.295c-17.267,3.639-33.567,8.144-48.424,13.509
			l11.073,34.715l-38.004,8.807L0,366.342v79.397h84.333V311.805h343.333V445.74H512v-80.103L441.217,235.868z"/>
	</g>
</g>
<g>
	<g>
		<path d="M380.972,81.566c-18.27-40.058-54.956-69.109-98.135-77.711c-17.809-3.548-35.865-3.548-53.674,0
			c-43.179,8.602-79.865,37.653-98.135,77.711l-36.553,80.144c44.649-14.98,101.279-23.544,160.609-24.199
			c58.917-0.643,115.535,6.531,160.653,20.281L380.972,81.566z"/>
	</g>
</g>
<g>
	<g>
		<path d="M175.696,173.584c5.143,39.744,39.182,70.554,80.304,70.554c41.688,0,76.11-31.66,80.513-72.196
			C284.593,165.404,227.333,165.99,175.696,173.584z"/>
	</g>
</g>
<g>
	<g>
		<path d="M114.333,510.805h283.333v-169H114.333V510.805z M256,405.091l21.213,21.213L256,447.518l-21.213-21.213L256,405.091z"/>
	</g>
</g>
<g>
</g>
<g>
</g>
<g>
</g>
<g>
</g>
<g>
</g>
<g>
</g>
<g>
</g>
<g>
</g>
<g>
</g>
<g>
</g>
<g>
</g>
<g>
</g>
<g>
</g>
<g>
</g>
<g>
</g>
</svg>
